<?xml version="1.0" encoding="utf-8"?>
<!-- Generator: Adobe Illustrator 26.2.1, SVG Export Plug-In . SVG Version: 6.00 Build 0)  -->
<svg version="1.1" id="Layer_1" xmlns="http://www.w3.org/2000/svg" xmlns:xlink="http://www.w3.org/1999/xlink" x="0px" y="0px"
	 viewBox="0 0 653.9 796.6" style="enable-background:new 0 0 653.9 796.6;" xml:space="preserve">
<style type="text/css">
	.st0{fill:#FEFEFF;}
	.st1{fill:#FDFEFF;}
</style>
<path class="st0" d="M400,539.2c-72.5,0-144.5,0-216.5,0c-6.5,0-6.5,0-6.5-6.5c0-74.2,0-148.3,0-222.5c0-7.1,0-7.1-7-7.1
	c-6,0-12-0.1-18,0.1c-3.1,0.1-5.6-0.7-6-3.7c-0.3-2.3,0-5.6,1.4-7c7.2-7.4,14.8-14.3,22.5-21.3c9.4-8.7,19-17.2,28.5-25.8
	c6.3-5.7,12.4-11.6,18.9-17c11.3-9.5,15.9-22.3,18.5-36.1c0.2-1.2-1-3-1.9-4.1c-3.3-3.9-7.2-7.5-10.2-11.6
	c-8.8-12.1-4.7-25.8,9.3-31.9c0.5-0.2,0.8-0.5,0.1-0.1c1-6.6,1.5-12.5,2.9-18.1c0.9-3.8,4.1-5.3,7.9-3.7c3.7,1.6,4.8,4.6,3,8.2
	c-2,4.1-0.6,7.6,2,10.6c4.9,5.6,10,11.2,15.2,16.5c4.1,4.1,8.5,4.2,12.4,0.7c3.4-3.1,3.5-8.6,0-12.6c-6-6.7-11.9-13.5-18-20
	c-5.7-6.1-8.4-13-5.7-21c2.8-8.4,8.8-13.5,17.8-15c1.3-0.2,3.2-1.4,3.5-2.5c2.2-8.4,7.2-14.1,15.4-17c-1-2.9-2.2-5.5-2.9-8.2
	c-1.7-6.6,2-13.8,8.3-14.9c13.1-2.2,26.2-4.6,39.5-5.3c13.5-0.7,24.3,6,32.3,16.9c1.9,2.6,3.4,3.5,6.8,3.2
	c15.5-1.6,26.6,12.7,21.6,27.6c-0.8,2.5-0.7,3.7,1.7,5.2c7.2,4.4,11.2,10.9,10.3,19.6c-0.3,3.3,0.7,4.9,3.8,6.5
	c8.7,4.4,12.8,11.6,11.6,21.7c-0.1,1.3,1.3,3.3,2.5,4c14.5,8.3,17.1,19.7,7.4,33.5c-0.7,0.9-1,2.5-0.8,3.6c1.6,8,3.7,15.8,5.1,23.8
	c1.7,10.1,6.1,18.6,12.8,26.1c16.1,18,32.3,35.8,48.5,53.8c1.4,1.6,2.9,3.3,4,5.1c2.8,5.1-0.2,10.3-5.7,10.3
	c-6.2,0-12.3,0.2-18.5-0.1c-3.6-0.1-4.6,1.3-4.5,4.7c0.2,11,0.1,22,0.1,33c0,64,0,128,0,192c0,6.5,0,6.5-6.5,6.5
	C444.5,539.2,422.5,539.2,400,539.2 M291.4,417c9.2-11,21.4-16.2,35.2-15.5c24.7,1.2,42.3,20.6,42.3,45.5c0,25.7,0.1,51.3-0.1,77
	c0,3.9,1.1,5.2,5.1,5.1c28-0.1,56-0.1,84,0c3.9,0,5.1-1.1,5.1-5.1c-0.1-72-0.1-143.9,0-215.9c0-4-1.3-5.1-5.2-5.1
	c-88.6,0.1-177.3,0.1-265.9,0c-3.9,0-5.1,1.2-5.1,5.1c0.1,72,0.1,143.9,0,215.9c0,4.1,1.3,5.1,5.2,5c27.5-0.1,55-0.2,82.5,0
	c4.4,0,5.7-1.3,5.6-5.7c-0.2-25.3-0.3-50.7,0-76C280.3,436.5,283.2,426.1,291.4,417 M383.9,183.6c-2,1.7-4,3.5-6.1,5.2
	c-2.8,2.2-5.6,2.1-8-0.5c-2.2-2.4-2.5-5,0-7.5c2.2-2.2,4.5-4.5,6.8-6.7c10.2-9.6,20.5-19,30.6-28.6c4.8-4.6,4.8-9.4,0.3-13.3
	c-3.9-3.4-7.9-2.6-11.9,0c-3.1,2-6.1,1.6-8.4-1.4c-2.2-2.8-1.2-5.3,1.1-7.5c1.1-1.1,2.2-2.1,3.2-3.2c4.4-4.4,4.8-10.1,1.1-13.7
	c-3.6-3.5-9-3-13.3,0.9c-6,5.5-12.1,10.9-18.2,16.3c-2.8,2.5-5.4,1.8-7.9-0.6c-2.7-2.5-2.3-5-0.1-7.4c1.2-1.4,2.5-2.6,3.9-3.9
	c7.9-7.2,15.9-14.2,23.5-21.6c3.7-3.6,3.4-8.5,0-12.1c-3.5-3.6-8.3-4-12.1-0.7c-10.1,8.9-20.1,18-30.1,26.9
	c-2.3,2.1-2.5,3.6-0.4,6.2c10.5,12.8,3.5,30.9-12.9,33.4c-3,0.5-4.4,1.4-5,4.3c-1.3,6.7-5.6,11-11.8,13.9c-6.3,3-12.3,1.8-18.5-0.9
	c-1,1.5-2,2.8-2.9,4.2c-3.2,5.4-8.3,8.3-14.2,9.3c-3.1,0.5-4.3,1.4-5.1,4.6c-2.1,8-7.5,13.4-15.8,14.7c-3.3,0.5-4.5,1.6-5,4.8
	c-1.7,11.8-6,22.5-14,31.5c-3.6,4.1-7.8,7.7-11.8,11.4c-15.7,14.1-31.5,28.2-47.2,42.3c-2.6,2.4-5.1,4.9-8.3,8.1
	c2.4,0.4,3.5,0.8,4.6,0.8c32,0,64,0.1,96-0.1c2.8,0,6.1-1,8.2-2.8c11.1-9.6,22-19.3,32.6-29.4c6.4-6.1,13.7-10.1,22.4-11.2
	c7.6-0.9,13.3-4.6,18.7-9.6c6.8-6.3,14-12.3,21.1-18.3c2.8-2.4,6-2.4,8.5,0.3c2.6,2.8,1.8,5.8-1,8.3c-3.5,3.1-6.9,6.3-10.4,9.3
	c-6.5,5.4-12.7,11.5-19.8,15.8c-5.7,3.4-12.8,4.3-19.1,6.8c-15.2,6-24.2,19.8-36.3,30.3c22.2,0,44.4,0,67.5,0
	c-4.9-5.4-9.1-10.1-13.3-14.8c-3.7-4-4.2-7.9-1.4-10.5c3-2.8,5.7-2.4,9.8,2c6.3,6.8,12.3,14,18.8,20.6c1.7,1.8,4.8,3.1,7.3,3.1
	c33.5,0.2,67,0.1,100.5,0.1c1.5,0,3-0.3,5.3-0.5c-1.1-1.5-1.6-2.1-2.1-2.7c-14-15.6-27.8-31.4-41.9-46.9
	c-10.1-11.1-16.3-23.8-17.4-38.8c-0.3-4.3-1.6-8.5-2.7-13.9c-2.4,2-3.6,3-4.8,4.1c-7.3,6.6-14.6,13.2-21.8,19.8
	c-2.7,2.5-5.6,3.1-8.4,0.5c-2.7-2.6-2.6-5.6-0.1-8.4c0.8-0.9,1.7-1.6,2.5-2.4c11-9.9,22.1-19.7,33-29.8c5.3-4.9,5.8-10.3,2-14.6
	c-3.2-3.6-9.5-3.2-14.3,1.2C400.9,168.1,392.7,175.6,383.9,183.6 M339.5,54.9c-13.9-2.5-26.7,3.3-40.1,4.4
	c0.9,8.7,7.1,14.8,15.3,14.9c4.8,0.1,9.6-0.8,14.3-1.5c5.5-0.9,7.8,0.4,9.1,5.7c0.6,2.5,1.1,5.1,1.9,8.9c6.5-6,12.4-11.3,18-16.8
	c0.5-0.5,0-2.4-0.6-3.4C353.4,60.8,347.5,56.9,339.5,54.9 M270.9,103.2c-7.3,2.5-9.5,8.6-4.6,14.2c9.2,10.5,18.8,20.7,28.4,30.9
	c3.8,4,8.4,3.7,12.5,0c3.4-3.1,3.6-8.3,0.3-12.1c-8.6-9.7-17.1-19.5-26.1-28.8C279,105,275,104.5,270.9,103.2 M287.2,88
	c0.2,2.8-0.6,6.6,0.9,8.3c9.6,11.2,19.5,22.2,29.6,33c2.9,3.1,6.8,2.6,10.1,0.3c3.5-2.4,5.1-5.9,3.2-10c-1.2-2.5-3-4.7-4.9-6.8
	c-7.5-8.4-15.2-16.7-22.7-25.2C298,81.6,293.1,81.3,287.2,88 M234.4,171c2.4,2.7,4.7,5.6,7.3,8.2c3.9,3.9,9.5,4,13,0.6
	c3.6-3.5,3.7-8.8,0.2-13.1c-1.9-2.3-3.9-4.5-5.9-6.8c-3.5-3.9-9.6-5-13.6-2.3C231.4,160.3,230.9,165,234.4,171 M320.7,85.6
	c-0.5,0.6-1.6,1.7-1.6,1.8c2.8,3.3,5.6,6.5,8.9,10.2C329.7,88.8,327.4,85.1,320.7,85.6z"/>
<path class="st0" d="M402.6,596.4c11.4,3.1,19.4,9.1,20.8,21.2c1.3,10.9,0.5,21.8-9.3,28.3c-6.2,4.2-14.2,6-21.6,8
	c-4.4,1.2-9.2,1-13.9,1.1c-2.8,0.1-3.8,1.1-3.8,3.9c0.1,10.5,0.1,21,0,31.5c0,2.8,1.2,3.8,3.9,3.7c3.3-0.1,6.7-0.1,10,0
	c1.3,0,2.7,0.4,4.7,0.7c-3.8,2.9-53.4,3-58.2,0.1c2.6-0.4,4.2-0.9,5.8-0.8c3,0.1,4.2-0.9,4.1-4c-0.1-29.6-0.1-59.3,0-88.9
	c0-3-1-4.3-4-4.1c-1.6,0.1-3.3-0.4-5.8-0.7C340.1,593.1,389.8,593.5,402.6,596.4 M392.1,636.7c-0.1-9.6,0.3-19.2-0.3-28.7
	c-0.5-7.1-5.6-10.7-12.6-10.8c-2.8,0-4.3,0.7-4.2,3.9c0.1,15.8,0.1,31.6,0,47.4c0,3.7,1.9,4.1,4.8,3.7
	C387.1,651,390.7,646.8,392.1,636.7z"/>
<path class="st0" d="M73,594.2c18.8,0,37.1,0.2,55.5-0.1c5.2-0.1,6.6,1.7,6.5,6.6c-0.1,6.3,0.7,12.6,0.8,18.9c0,1.8-0.9,3.6-1.4,5.3
	c-1.2-1.3-2.7-2.5-3.5-4.1c-2.4-4.2-4.2-8.7-6.9-12.7c-5.1-7.7-17.8-12.3-26.6-9.9c-1,0.3-2.2,2-2.2,3.1c-0.2,13.5-0.1,27-0.1,40.5
	c0,2.7,1.3,3.3,3.7,3.4c8.7,0.4,15.1-3.8,18.4-12.4c0.8-2.2,1.8-4.4,3.8-6.5c1.2,14.5,1.2,28.9,1.1,43.3c-0.7,0.2-1.3,0.3-2,0.5
	c-0.7-1.8-1.6-3.5-2.1-5.3c-3.4-11.5-8.8-16-18.8-15.7c-3.1,0.1-4,1.2-4,4.2c0.1,11.8,0.1,23.7,0,35.5c0,3.4,1,4.9,4.6,4.7
	c3.3-0.2,6.7-0.2,10,0c1.5,0.1,2.8,1,4.3,1.5c-0.1,0.5-0.2,1.1-0.4,1.6c-18.6,0-37.2,0-55.8,0c-0.2-0.5-0.4-0.9-0.6-1.4
	c1.6-0.6,3.1-1.7,4.7-1.7c3.3,0,4.3-1.3,4.3-4.5c-0.1-28.8-0.1-57.6,0-86.4c0-3.5-1.3-4.7-4.7-4.6c-1.3,0-2.7-1.1-4.1-1.7
	c1.4-0.7,2.8-1.9,4.2-2C65.1,594,68.8,594.2,73,594.2z"/>
<path class="st1" d="M490.5,656.1c-6.2-1.2-9.7-4.6-10.2-10.4c-0.7-7,2.3-12.4,8.4-15.7c9.1-4.9,19.1-5.1,29.2-4.4
	c2.5,0.2,5,0.5,7.4,1.1c11.7,2.6,17.5,10.1,17.6,23.2c0.2,10.7,0,21.3,0,32c0,1.3-0.4,2.8,0.2,4c0.8,1.6,2.1,3,3.2,4.4
	c1.3-1.1,3.1-2,3.7-3.4c1-2.6,1.2-5.5,1.9-8.2c0.2-1,0.8-1.9,1.3-3.2c3.2,5.1,0.3,16.8-4.7,20.4c-8.7,6.3-25.2,3.8-33.2-5.5
	c-3,5.3-7.5,8.9-13.5,8.6c-5.8-0.3-11.9-1.1-17.4-3.2c-6.5-2.5-8.4-8.8-8.2-15.3c0.2-6.3,2.6-12.3,9.2-14.1
	c7.8-2.1,15.9-3.1,23.9-3.9c3.6-0.4,5.1-1.3,4.8-5c-0.5-7.9-0.3-16-1.4-23.8c-0.8-5.7-6.7-7.3-10.4-3.4c-2.1,2.2-2.5,4.8,0.3,6.9
	c5.5,4.2,5.8,12.4-0.1,16C499.3,655,494.8,655.2,490.5,656.1 M505.1,675.2c0.1,4.3-0.1,8.6,0.3,12.9c0.2,1.4,1.8,3.6,3.1,3.8
	c1.2,0.2,3.3-1.4,4-2.8c4.1-7.6,2.3-15.6,2.1-23.9C508,665.5,506.2,669.6,505.1,675.2z"/>
<path class="st1" d="M211.7,690.7c-3.3,6.6-9.1,8-15.2,8.3c-8.1,0.4-15.6-1.2-21.3-8.2c-7.8,10-17.8,9.6-28.2,6.4
	c-6.9-2.1-10.7-7.7-10.9-15.1c-0.3-8.8,2.1-13.8,9.7-16c7.6-2.2,15.6-3,23.5-3.7c3.6-0.3,5.1-1.1,4.9-4.9
	c-0.5-7.3-0.6-14.6-1.1-21.9c-0.4-5.5-3.6-8.5-7.8-7.1c-1.7,0.5-3.7,2.5-4,4.1c-0.3,1.4,1.1,3.8,2.5,4.8c4.1,2.9,3.2,12.4-1.8,16.1
	c-6,4.5-15.9,3.5-19.9-2c-4-5.5-2.7-16.1,3.5-19.6c5.3-3,11.6-5.4,17.7-5.8c8.3-0.6,16.9,0.1,25.1,1.7c8.4,1.7,13.4,9.4,13.6,18.7
	c0.2,9.3,0,18.6,0.2,28c0.1,4,0.3,8,0.9,11.9c0.2,1.4,1.6,2.5,2.5,3.8c1.4-1,3.3-1.6,4-3c1-2.2,1.2-4.8,1.7-7.2
	c0.3-1.5,0.7-2.9,1.2-4.9C215.4,678.6,215.1,681.8,211.7,690.7 M166,691.3c4.2,1,7.1-0.9,7.6-6.3c0.6-6.4,0.1-12.9,0.1-19.3
	c-5.3-0.2-8.3,2.1-8.6,7.6C164.8,679.1,165.3,684.9,166,691.3z"/>
<path class="st1" d="M436.2,672.2c0-25.8-0.1-51.1,0.1-76.4c0-3.7-0.4-6.2-5-5.8c-0.9,0.1-2-1.1-2.9-1.8c1-0.6,2-1.7,3-1.7
	c9.8-0.1,19.6,0,29.5-0.1c3,0,4.2,1.3,4.1,4.2c-0.1,6.8,0,13.7,0,20.5c0,25.1,0.1,50.3-0.1,75.4c0,4.7-0.2,8.8,6.4,7.9
	c0.5-0.1,1,0.6,1.6,1c-3.2,2.3-40.2,2.5-44.6,0.3c0.7-0.5,1.4-1.4,1.9-1.3c6.1,0.9,6.3-2.7,6.1-7.2
	C436,682.3,436.2,677.5,436.2,672.2z"/>
<path class="st1" d="M570,627.2c6.8,0,13.2,0,19.5,0c0.1,0.7,0.1,1.4,0.2,2.1c-2.2,0.4-4.4,0.9-7.4,1.5c4.9,14.9,9.9,29.8,15.3,46.1
	c5.6-16.2,10.8-31.1,16.1-46.3c-3.4-0.4-6.3-0.7-9.2-1c0-0.5,0.1-1,0.1-1.6c7,0,14,0,21.4,0c-0.6,0.9-0.8,1.7-1,1.7
	c-6.8-0.8-7.8,4.1-9.4,8.9c-8.7,25.3-17.5,50.7-26.7,75.8c-1.7,4.6-4.4,9-7.6,12.7c-7,8-19.7,9.5-28.8,4c-6.3-3.7-8.6-13-4.7-18.8
	c3.6-5.5,14.4-7.1,19.7-3c5.1,3.9,4.3,11.3-1.3,14c-1,0.5-2.2,2.7-1.8,3.4c0.7,1.4,2.6,3.4,3.6,3.2c2.9-0.7,6.4-1.6,8.4-3.6
	c7.7-7.8,10-18.4,13.8-28.7c-1.9-0.2-3.2-0.3-4.5-0.3c-9.6-0.2-7.4,1.5-11.1-7.9c-6.9-18-13.3-36.2-20.4-54.2
	c-1.1-2.8-4.5-4.6-7.1-7.2C554,626.2,561.8,627.6,570,627.2z"/>
<path class="st1" d="M262.9,694.7c7.1-0.8,7.1-0.8,7.1-7.8c0-16.8-0.1-33.6,0.1-50.4c0.1-4.3-0.5-7.2-5.8-6.5
	c-0.6,0.1-1.4-0.5-2.1-2.1c1.6-0.3,3.1-0.7,4.7-0.7c8.3-0.1,16.7,0.2,25-0.1c4.8-0.2,6.9,1.2,6.1,6.1c-0.1,0.7,0.2,1.5,0.5,3.4
	c4.2-6.3,9.4-9.8,16-10.9c6.1-1.1,13.6,1.6,16.5,6c3.8,5.9,3.6,14.5-0.4,19.8c-3.2,4.2-11.4,5.6-17,3c-4.7-2.2-7.1-7.6-5.3-13.2
	c0.4-1.2,2.6-1.8,3.8-3c1.1-1.1,2-2.4,3-3.6c-1.2-0.9-2.7-2.7-3.4-2.4c-2.7,0.9-5.8,1.9-7.5,3.9c-5.1,6-5.8,13.7-6,21.2
	c-0.3,10.6,0.1,21.3-0.2,32c-0.1,4.1,1.4,5.3,5.2,5c1.8-0.1,3.6,0.3,5.5,0.5c0,0.5,0,1,0.1,1.5c-1.1,0.3-2.2,0.8-3.3,0.8
	c-13.2,0.1-26.3,0.1-39.5-0.1C264.8,697.1,263.7,695.7,262.9,694.7z"/>
<path class="st1" d="M239,697.2c-8.1,0-15.8,0-23.4,0c-0.1-0.6-0.1-1.1-0.2-1.7c0.7-0.4,1.5-1.3,2.2-1.2c5,0.7,5.7-2,5.6-6.2
	c-0.2-17-0.2-34,0-51c0-4.5,0-8.2-6.1-7.2c-0.4,0.1-0.9-0.3-1.3-0.5c-0.2-0.2-0.3-0.6-0.8-1.6c1.7-0.2,3.2-0.6,4.6-0.6
	c9.2-0.1,18.3,0.1,27.5-0.1c3.8-0.1,4.8,1.2,4.8,4.9c-0.1,18.5,0,37-0.1,55.5c0,4.4,0.2,7.7,5.9,6.9c0.6-0.1,1.3,0.6,2,1.8
	C252.9,697.4,246.2,697.1,239,697.2z"/>
<path class="st1" d="M252.4,608.1c-3.4,7.6-7.6,9.6-17.8,9c-5.4-0.3-9.5-3.4-11.1-8.5c-2-6.1-0.2-13,4.2-16.4
	c4.6-3.6,14.2-4,19.5-0.8C253.6,595.3,253.5,601.4,252.4,608.1z"/>
<path class="st1" d="M369.2,369.7c1.4-0.7,2.6-1.3,3.9-1.4c8.1-0.1,16.3,0.1,24.4-0.1c3.2-0.1,4.5,0.9,4.4,4.2
	c-0.2,8.3-0.1,16.6,0,24.9c0,2.7-0.9,3.9-3.8,3.9c-8.1-0.1-16.3-0.1-24.4,0c-3.4,0-4.8-1.3-4.8-4.7
	C369.1,387.7,369,378.9,369.2,369.7z"/>
<path class="st1" d="M228,367.3c12.9,0,12.9,0,12.9,12.2c0,5.7-0.1,11.3,0,17c0,2.8-1.1,3.9-3.8,3.8c-8.2-0.1-16.3-0.1-24.5,0
	c-3.5,0-4.7-1.6-4.6-4.9c0.1-8,0.1-16,0-24c0-3,1.1-4.2,4.1-4.1C217.1,367.4,222.3,367.3,228,367.3z"/>
<path class="st0" d="M279.1,393.9c0.5,4.7-1.3,6.5-5.7,6.3c-7.6-0.3-15.3-0.2-22.9,0c-3.2,0.1-4.5-0.9-4.4-4.2
	c0.2-8.3,0.1-16.6,0-24.9c0-2.8,0.9-3.9,3.8-3.8c8.5,0.1,16.9,0.1,25.4,0c3.2,0,3.9,1.5,3.9,4.3C279,378.9,279.1,386.2,279.1,393.9z
	"/>
<path class="st1" d="M427.9,401.2c-5.8,0-11.2,0.2-16.5-0.2c-1.3-0.1-3.4-2.2-3.4-3.4c-0.3-8.6-0.3-17.3,0-25.9c0-1.2,1.9-3.2,3-3.2
	c8.6-0.3,17.3-0.1,26-0.2c3.2,0,3.8,1.9,3.8,4.5c-0.1,7.3-0.2,14.6,0,22c0.1,4.7-1.7,6.8-6.5,6.4
	C432.4,401.1,430.4,401.2,427.9,401.2z"/>
<path class="st1" d="M385,330.1c4.2,0,7.8,0.2,11.5-0.1c4-0.3,5.7,0.9,5.5,5.2c-0.3,7.6-0.2,15.3,0,23c0,3-1.1,4.1-4.1,4.1
	c-8.2-0.1-16.3-0.1-24.5,0c-3.2,0.1-4.5-1-4.4-4.3c0.2-7.7,0.1-15.3,0-23c-0.1-3.7,1.5-5.1,5.1-5C377.5,330.2,381,330.1,385,330.1z"
	/>
<path class="st0" d="M260,361.3c-13.1,0-13.1,0-13.1-12.5c0-5,0.1-10,0-15c-0.1-3.3,0.8-4.9,4.4-4.8c7.7,0.2,15.3,0.1,23,0
	c3.3,0,4.9,1.2,4.8,4.7c-0.1,7.8-0.1,15.6,0,23.5c0.1,3-1.1,4.2-4.1,4.1C270.1,361.2,265.3,361.3,260,361.3z"/>
<path class="st0" d="M230.9,361.3c-6.7,0-12.8-0.1-19,0c-3,0.1-4.1-1.1-4.1-4.1c0.1-7.8,0.1-15.6,0-23.5c0-3.1,1.1-4.7,4.4-4.6
	c8,0.1,16,0.1,24,0c3.2-0.1,3.9,1.5,3.9,4.3c-0.1,7.8-0.2,15.6,0,23.5c0.1,3.6-1.4,4.8-4.7,4.5C234.1,361.2,232.7,361.3,230.9,361.3
	z"/>
<path class="st0" d="M440.1,358c0.2,3.2-1,4.4-3.8,4.3c-8.2-0.1-16.3-0.1-24.5,0c-3.2,0.1-4-1.4-4-4.2c0.1-8,0.1-16,0-24
	c0-3.1,1.2-4.1,4.2-4c7.7,0.1,15.3,0.2,23,0c4-0.1,5.2,1.7,5.1,5.5C440,342.8,440.1,350.2,440.1,358z"/>
<path class="st1" d="M375.2,151.4c-5.7,5.1-11.3,9.9-16.6,14.8c-3,2.8-5.7,2.1-8.3-0.3c-2.8-2.6-2.3-5.6,0.1-7.9
	c7.2-6.8,14.7-13.5,22.1-20.1c2.9-2.5,6.1-2.9,8.9,0.1c3,3.2,1.5,6-1.2,8.6C378.5,148.1,377,149.6,375.2,151.4z"/>
</svg>
